<svg width="16" height="17" viewBox="0 0 16 17" fill="none" xmlns="http://www.w3.org/2000/svg">
<path fill-rule="evenodd" clip-rule="evenodd" d="M1 5.808L2 1.5H6M1 5.808V15.5H15V5.808M1 5.808H6H1ZM6 5.808H10H6ZM6 5.808V1.5V5.808ZM6 5.808V9.5L8 8.5L10 9.5V5.808M6 1.5H10H6ZM15 5.808L14 1.5H10M15 5.808H10H15ZM10 5.808V1.5V5.808Z" fill="white"/>
<path d="M0.269424 5.63841C0.175765 6.0419 0.426928 6.44492 0.830414 6.53858C1.2339 6.63224 1.63692 6.38107 1.73058 5.97759L0.269424 5.63841ZM2 1.5V0.75C1.65112 0.75 1.34831 0.990569 1.26942 1.33041L2 1.5ZM6 2.25C6.41421 2.25 6.75 1.91421 6.75 1.5C6.75 1.08579 6.41421 0.75 6 0.75V2.25ZM1.75 5.808C1.75 5.39379 1.41421 5.058 1 5.058C0.585786 5.058 0.25 5.39379 0.25 5.808H1.75ZM1 15.5H0.25C0.25 15.9142 0.585786 16.25 1 16.25L1 15.5ZM15 15.5V16.25C15.4142 16.25 15.75 15.9142 15.75 15.5H15ZM15.75 5.808C15.75 5.39379 15.4142 5.058 15 5.058C14.5858 5.058 14.25 5.39379 14.25 5.808H15.75ZM1 5.058C0.585786 5.058 0.25 5.39379 0.25 5.808C0.25 6.22221 0.585786 6.558 1 6.558V5.058ZM6 6.558C6.41421 6.558 6.75 6.22221 6.75 5.808C6.75 5.39379 6.41421 5.058 6 5.058V6.558ZM6 5.058C5.58579 5.058 5.25 5.39379 5.25 5.808C5.25 6.22221 5.58579 6.558 6 6.558V5.058ZM10 6.558C10.4142 6.558 10.75 6.22221 10.75 5.808C10.75 5.39379 10.4142 5.058 10 5.058V6.558ZM5.25 5.808C5.25 6.22221 5.58579 6.558 6 6.558C6.41421 6.558 6.75 6.22221 6.75 5.808H5.25ZM6.75 1.5C6.75 1.08579 6.41421 0.75 6 0.75C5.58579 0.75 5.25 1.08579 5.25 1.5H6.75ZM6.75 5.808C6.75 5.39379 6.41421 5.058 6 5.058C5.58579 5.058 5.25 5.39379 5.25 5.808H6.75ZM6 9.5H5.25C5.25 9.75993 5.38459 10.0013 5.6057 10.138C5.82681 10.2746 6.10292 10.2871 6.33541 10.1708L6 9.5ZM8 8.5L8.33541 7.82918C8.12426 7.72361 7.87574 7.72361 7.66459 7.82918L8 8.5ZM10 9.5L9.66459 10.1708C9.89708 10.2871 10.1732 10.2746 10.3943 10.138C10.6154 10.0013 10.75 9.75993 10.75 9.5H10ZM10.75 5.808C10.75 5.39379 10.4142 5.058 10 5.058C9.58579 5.058 9.25 5.39379 9.25 5.808H10.75ZM6 0.75C5.58579 0.75 5.25 1.08579 5.25 1.5C5.25 1.91421 5.58579 2.25 6 2.25V0.75ZM10 2.25C10.4142 2.25 10.75 1.91421 10.75 1.5C10.75 1.08579 10.4142 0.75 10 0.75V2.25ZM14.2694 5.97759C14.3631 6.38107 14.7661 6.63224 15.1696 6.53858C15.5731 6.44492 15.8242 6.0419 15.7306 5.63841L14.2694 5.97759ZM14 1.5L14.7306 1.33041C14.6517 0.990569 14.3489 0.75 14 0.75V1.5ZM10 0.75C9.58579 0.75 9.25 1.08579 9.25 1.5C9.25 1.91421 9.58579 2.25 10 2.25V0.75ZM15 6.558C15.4142 6.558 15.75 6.22221 15.75 5.808C15.75 5.39379 15.4142 5.058 15 5.058V6.558ZM10 5.058C9.58579 5.058 9.25 5.39379 9.25 5.808C9.25 6.22221 9.58579 6.558 10 6.558V5.058ZM9.25 5.808C9.25 6.22221 9.58579 6.558 10 6.558C10.4142 6.558 10.75 6.22221 10.75 5.808H9.25ZM10.75 1.5C10.75 1.08579 10.4142 0.75 10 0.75C9.58579 0.75 9.25 1.08579 9.25 1.5H10.75ZM1.73058 5.97759L2.73058 1.66959L1.26942 1.33041L0.269424 5.63841L1.73058 5.97759ZM2 2.25H6V0.75H2V2.25ZM0.25 5.808V15.5H1.75V5.808H0.25ZM1 16.25H15V14.75H1V16.25ZM15.75 15.5V5.808H14.25V15.5H15.75ZM1 6.558H6V5.058H1V6.558ZM6 6.558H10V5.058H6V6.558ZM6.75 5.808V1.5H5.25V5.808H6.75ZM5.25 5.808V9.5H6.75V5.808H5.25ZM6.33541 10.1708L8.33541 9.17082L7.66459 7.82918L5.66459 8.82918L6.33541 10.1708ZM7.66459 9.17082L9.66459 10.1708L10.3354 8.82918L8.33541 7.82918L7.66459 9.17082ZM10.75 9.5V5.808H9.25V9.5H10.75ZM6 2.25H10V0.75H6V2.25ZM15.7306 5.63841L14.7306 1.33041L13.2694 1.66959L14.2694 5.97759L15.7306 5.63841ZM14 0.75H10V2.25H14V0.75ZM15 5.058H10V6.558H15V5.058ZM10.75 5.808V1.5H9.25V5.808H10.75Z" fill="#323755"/>
</svg>
