<svg width="16" height="16" viewBox="0 0 16 16" fill="none" xmlns="http://www.w3.org/2000/svg">
<path fill-rule="evenodd" clip-rule="evenodd" d="M5 10L7 12L11 8M1 5.308L2 1H8M1 5.308V15H15V5.308M1 5.308H8H1ZM8 5.308V1V5.308ZM8 5.308H15H8ZM8 5.308V7V5.308ZM8 1H14L15 5.308" fill="black"/>
<path d="M5.53033 9.46967C5.23744 9.17678 4.76256 9.17678 4.46967 9.46967C4.17678 9.76256 4.17678 10.2374 4.46967 10.5303L5.53033 9.46967ZM7 12L6.46967 12.5303C6.76256 12.8232 7.23744 12.8232 7.53033 12.5303L7 12ZM11.5303 8.53033C11.8232 8.23744 11.8232 7.76256 11.5303 7.46967C11.2374 7.17678 10.7626 7.17678 10.4697 7.46967L11.5303 8.53033ZM0.269424 5.13841C0.175765 5.5419 0.426928 5.94492 0.830414 6.03858C1.2339 6.13223 1.63692 5.88107 1.73058 5.47759L0.269424 5.13841ZM2 1V0.25C1.65112 0.25 1.34831 0.490569 1.26942 0.830414L2 1ZM8 1.75C8.41421 1.75 8.75 1.41421 8.75 1C8.75 0.585786 8.41421 0.25 8 0.25V1.75ZM1.75 5.308C1.75 4.89379 1.41421 4.558 1 4.558C0.585786 4.558 0.25 4.89379 0.25 5.308H1.75ZM1 15H0.25C0.25 15.4142 0.585786 15.75 1 15.75V15ZM15 15V15.75C15.4142 15.75 15.75 15.4142 15.75 15H15ZM15.75 5.308C15.75 4.89379 15.4142 4.558 15 4.558C14.5858 4.558 14.25 4.89379 14.25 5.308H15.75ZM1 4.558C0.585786 4.558 0.25 4.89379 0.25 5.308C0.25 5.72221 0.585786 6.058 1 6.058V4.558ZM8 6.058C8.41421 6.058 8.75 5.72221 8.75 5.308C8.75 4.89379 8.41421 4.558 8 4.558V6.058ZM7.25 5.308C7.25 5.72221 7.58579 6.058 8 6.058C8.41421 6.058 8.75 5.72221 8.75 5.308H7.25ZM8.75 1C8.75 0.585786 8.41421 0.25 8 0.25C7.58579 0.25 7.25 0.585786 7.25 1H8.75ZM8 4.558C7.58579 4.558 7.25 4.89379 7.25 5.308C7.25 5.72221 7.58579 6.058 8 6.058V4.558ZM15 6.058C15.4142 6.058 15.75 5.72221 15.75 5.308C15.75 4.89379 15.4142 4.558 15 4.558V6.058ZM8.75 5.308C8.75 4.89379 8.41421 4.558 8 4.558C7.58579 4.558 7.25 4.89379 7.25 5.308H8.75ZM7.25 7C7.25 7.41421 7.58579 7.75 8 7.75C8.41421 7.75 8.75 7.41421 8.75 7H7.25ZM8 0.25C7.58579 0.25 7.25 0.585786 7.25 1C7.25 1.41421 7.58579 1.75 8 1.75V0.25ZM14 1L14.7306 0.830414C14.6517 0.490569 14.3489 0.25 14 0.25V1ZM14.2694 5.47759C14.3631 5.88107 14.7661 6.13224 15.1696 6.03858C15.5731 5.94492 15.8242 5.5419 15.7306 5.13841L14.2694 5.47759ZM4.46967 10.5303L6.46967 12.5303L7.53033 11.4697L5.53033 9.46967L4.46967 10.5303ZM7.53033 12.5303L11.5303 8.53033L10.4697 7.46967L6.46967 11.4697L7.53033 12.5303ZM1.73058 5.47759L2.73058 1.16959L1.26942 0.830414L0.269424 5.13841L1.73058 5.47759ZM2 1.75H8V0.25H2V1.75ZM0.25 5.308V15H1.75V5.308H0.25ZM1 15.75H15V14.25H1V15.75ZM15.75 15V5.308H14.25V15H15.75ZM1 6.058H8V4.558H1V6.058ZM8.75 5.308V1H7.25V5.308H8.75ZM8 6.058H15V4.558H8V6.058ZM7.25 5.308V7H8.75V5.308H7.25ZM8 1.75H14V0.25H8V1.75ZM13.2694 1.16959L14.2694 5.47759L15.7306 5.13841L14.7306 0.830414L13.2694 1.16959Z" fill="white"/>
</svg>
