<svg width="16" height="16" viewBox="0 0 16 16" fill="none" xmlns="http://www.w3.org/2000/svg">
<path fill-rule="evenodd" clip-rule="evenodd" d="M1.00002 14.211V5.737C0.997245 5.30439 1.34541 4.9513 1.77802 4.948H4.88902C5.32162 4.9513 5.66979 5.30439 5.66702 5.737V1.789C5.66424 1.35678 6.0118 1.00385 6.44402 1H9.55602C9.98862 1.0033 10.3368 1.35639 10.334 1.789V4.158C10.3312 3.72539 10.6794 3.3723 11.112 3.369H14.223C14.6552 3.37285 15.0028 3.72578 15 4.158V14.211C15.0028 14.6436 14.6546 14.9967 14.222 15H1.77802C1.34541 14.9967 0.997245 14.6436 1.00002 14.211V14.211Z" stroke="#323755" stroke-width="1.5" stroke-linecap="round" stroke-linejoin="round"/>
<path d="M4.91699 15.0002C4.91699 15.4144 5.25278 15.7502 5.66699 15.7502C6.08121 15.7502 6.41699 15.4144 6.41699 15.0002H4.91699ZM6.41699 5.7372C6.41699 5.32299 6.08121 4.9872 5.66699 4.9872C5.25278 4.9872 4.91699 5.32299 4.91699 5.7372H6.41699ZM9.58299 15.0002C9.58299 15.4144 9.91878 15.7502 10.333 15.7502C10.7472 15.7502 11.083 15.4144 11.083 15.0002H9.58299ZM11.083 4.1582C11.083 3.74399 10.7472 3.4082 10.333 3.4082C9.91878 3.4082 9.58299 3.74399 9.58299 4.1582H11.083ZM6.41699 15.0002V5.7372H4.91699V15.0002H6.41699ZM11.083 15.0002V4.1582H9.58299V15.0002H11.083Z" fill="#323755"/>
</svg>
