<svg width="11" height="20" viewBox="0 0 11 20" fill="none" xmlns="http://www.w3.org/2000/svg">
<path d="M7.53718 0.848633C6.17084 0.848633 5.01122 1.2717 4.22989 2.12061C3.44856 2.96952 3.08243 4.18019 3.08243 5.62484V7.08317H1.63223C0.829046 7.08317 0.165951 7.75184 0.173899 8.55534L0.186106 9.80697V9.80778C0.195485 10.6001 0.852911 11.2522 1.64607 11.2515L3.08324 11.2507V18.1248C3.08324 18.9227 3.74368 19.5832 4.54157 19.5832H6.20824C7.00614 19.5832 7.66657 18.9227 7.66657 18.1248V11.2498H8.95645C9.69135 11.2498 10.3196 10.69 10.405 9.95996L10.5507 8.70996C10.6501 7.85431 9.96393 7.08317 9.10212 7.08317H7.67471L7.69262 5.71354C7.69263 5.71083 7.69263 5.70812 7.69262 5.7054C7.69262 5.41964 7.90978 5.20247 8.19555 5.20247H9.4073C10.0565 5.20247 10.5963 4.66274 10.5963 4.01351V2.10921C10.5963 1.49854 10.1212 0.979129 9.51391 0.924316H9.51228C9.39379 0.913949 8.57403 0.848633 7.53718 0.848633ZM7.53718 2.09863C8.48627 2.09863 9.33874 2.16681 9.34626 2.16699V3.95247H8.19555C7.23465 3.95247 6.44262 4.7445 6.44262 5.7054L6.41657 7.70003C6.41551 7.78279 6.43088 7.86493 6.46181 7.9417C6.49274 8.01847 6.53861 8.08833 6.59675 8.14723C6.65489 8.20613 6.72415 8.25289 6.80051 8.28481C6.87687 8.31673 6.95881 8.33317 7.04157 8.33317H9.10212C9.23781 8.33317 9.32443 8.43156 9.30883 8.56592L9.16397 9.8151C9.15101 9.92594 9.06738 9.99984 8.95645 9.99984H7.04157C6.87582 9.99985 6.71686 10.0657 6.59965 10.1829C6.48244 10.3001 6.41659 10.4591 6.41657 10.6248V18.1248C6.41657 18.2478 6.33118 18.3332 6.20824 18.3332H4.54157C4.41864 18.3332 4.33324 18.2478 4.33324 18.1248V10.6248C4.33322 10.4591 4.26737 10.3001 4.15016 10.1829C4.03296 10.0657 3.874 9.99985 3.70824 9.99984L1.64525 10.0015H1.64444C1.5239 10.0016 1.43821 9.91584 1.43611 9.79395L1.4239 8.54313C1.4227 8.41997 1.50875 8.33317 1.63223 8.33317H3.70743C3.87318 8.33315 4.03214 8.2673 4.14935 8.15009C4.26656 8.03289 4.33241 7.87393 4.33243 7.70817V5.62484C4.33243 4.38907 4.63819 3.52418 5.1503 2.96777C5.66241 2.41137 6.41727 2.09863 7.53718 2.09863Z" fill="#FDFDFD"/>
</svg>
