<svg width="24" height="24" viewBox="0 0 24 24" fill="none" xmlns="http://www.w3.org/2000/svg">
<path d="M2.40124 5.59969C2.29523 5.59819 2.18998 5.61778 2.0916 5.65731C1.99323 5.69684 1.90369 5.75553 1.8282 5.82996C1.7527 5.9044 1.69275 5.99309 1.65183 6.0909C1.61092 6.18871 1.58984 6.29367 1.58984 6.39969C1.58984 6.50571 1.61092 6.61067 1.65183 6.70848C1.69275 6.80628 1.7527 6.89498 1.8282 6.96942C1.90369 7.04385 1.99323 7.10254 2.0916 7.14207C2.18998 7.1816 2.29523 7.20119 2.40124 7.19969H21.6012C21.7072 7.20119 21.8125 7.1816 21.9109 7.14207C22.0092 7.10254 22.0988 7.04385 22.1743 6.96942C22.2498 6.89498 22.3097 6.80628 22.3506 6.70848C22.3916 6.61067 22.4126 6.50571 22.4126 6.39969C22.4126 6.29367 22.3916 6.18871 22.3506 6.0909C22.3097 5.99309 22.2498 5.9044 22.1743 5.82996C22.0988 5.75553 22.0092 5.69684 21.9109 5.65731C21.8125 5.61778 21.7072 5.59819 21.6012 5.59969H2.40124ZM2.40124 11.1997C2.29523 11.1982 2.18998 11.2178 2.0916 11.2573C1.99323 11.2968 1.90369 11.3555 1.8282 11.43C1.7527 11.5044 1.69275 11.5931 1.65183 11.6909C1.61092 11.7887 1.58984 11.8937 1.58984 11.9997C1.58984 12.1057 1.61092 12.2107 1.65183 12.3085C1.69275 12.4063 1.7527 12.495 1.8282 12.5694C1.90369 12.6439 1.99323 12.7025 2.0916 12.7421C2.18998 12.7816 2.29523 12.8012 2.40124 12.7997H21.6012C21.7072 12.8012 21.8125 12.7816 21.9109 12.7421C22.0092 12.7025 22.0988 12.6439 22.1743 12.5694C22.2498 12.495 22.3097 12.4063 22.3506 12.3085C22.3916 12.2107 22.4126 12.1057 22.4126 11.9997C22.4126 11.8937 22.3916 11.7887 22.3506 11.6909C22.3097 11.5931 22.2498 11.5044 22.1743 11.43C22.0988 11.3555 22.0092 11.2968 21.9109 11.2573C21.8125 11.2178 21.7072 11.1982 21.6012 11.1997H2.40124ZM2.40124 16.7997C2.29523 16.7982 2.18998 16.8178 2.0916 16.8573C1.99323 16.8968 1.90369 16.9555 1.8282 17.03C1.7527 17.1044 1.69275 17.1931 1.65183 17.2909C1.61092 17.3887 1.58984 17.4937 1.58984 17.5997C1.58984 17.7057 1.61092 17.8107 1.65183 17.9085C1.69275 18.0063 1.7527 18.095 1.8282 18.1694C1.90369 18.2439 1.99323 18.3025 2.0916 18.3421C2.18998 18.3816 2.29523 18.4012 2.40124 18.3997H21.6012C21.7072 18.4012 21.8125 18.3816 21.9109 18.3421C22.0092 18.3025 22.0988 18.2439 22.1743 18.1694C22.2498 18.095 22.3097 18.0063 22.3506 17.9085C22.3916 17.8107 22.4126 17.7057 22.4126 17.5997C22.4126 17.4937 22.3916 17.3887 22.3506 17.2909C22.3097 17.1931 22.2498 17.1044 22.1743 17.03C22.0988 16.9555 22.0092 16.8968 21.9109 16.8573C21.8125 16.8178 21.7072 16.7982 21.6012 16.7997H2.40124Z" fill="#323755"/>
</svg>
