<svg width="13" height="16" viewBox="0 0 13 16" fill="none" xmlns="http://www.w3.org/2000/svg">
<path d="M6.4 16C5.51684 15.9957 4.80073 15.2831 4.792 14.4H7.992C7.99369 14.6139 7.9529 14.826 7.872 15.024C7.66212 15.5056 7.23345 15.8569 6.72 15.968H6.716H6.704H6.6896H6.6824C6.58945 15.9874 6.49492 15.9981 6.4 16ZM12.8 13.6H0V12L1.6 11.2V6.8C1.55785 5.67129 1.81275 4.5513 2.3392 3.552C2.86323 2.62521 3.75896 1.9671 4.8 1.744V0H8V1.744C10.0632 2.2352 11.2 4.0304 11.2 6.8V11.2L12.8 12V13.6Z" fill="#B0C3CC"/>
</svg>
