<svg width="18" height="18" viewBox="0 0 18 18" fill="none" xmlns="http://www.w3.org/2000/svg">
<path d="M4.2085 0.75C2.30753 0.75 0.75 2.30753 0.75 4.2085V13.7915C0.75 15.6925 2.30753 17.25 4.2085 17.25H13.7915C15.6925 17.25 17.25 15.6925 17.25 13.7915V4.2085C17.25 2.30753 15.6925 0.75 13.7915 0.75H4.2085ZM4.2085 2.25H13.7915C14.8815 2.25 15.75 3.11846 15.75 4.2085V13.7915C15.75 14.8815 14.8815 15.75 13.7915 15.75H4.2085C3.11846 15.75 2.25 14.8815 2.25 13.7915V4.2085C2.25 3.11846 3.11846 2.25 4.2085 2.25ZM9.75 3.75V11.25C9.75 12.0875 9.0875 12.75 8.25 12.75C7.4125 12.75 6.75 12.0875 6.75 11.25C6.75 10.4125 7.4125 9.75 8.25 9.75V8.25C6.602 8.25 5.25 9.602 5.25 11.25C5.25 12.898 6.602 14.25 8.25 14.25C9.898 14.25 11.25 12.898 11.25 11.25V6.6665C11.8709 7.14732 12.607 7.48808 13.4458 7.5L13.4678 6C12.2331 5.98246 11.25 4.99067 11.25 3.75H9.75Z" fill="#E8E8E8"/>
</svg>
